<?xml version="1.0" standalone="no"?><!DOCTYPE svg PUBLIC "-//W3C//DTD SVG 1.1//EN" "http://www.w3.org/Graphics/SVG/1.1/DTD/svg11.dtd"><svg t="1548643281823" class="icon" style="" viewBox="0 0 1024 1024" version="1.1" xmlns="http://www.w3.org/2000/svg" p-id="3092" xmlns:xlink="http://www.w3.org/1999/xlink" width="40" height="40"><defs><style type="text/css"></style></defs><path d="M875.794647 185.954981H144.395476c-44.758123 0-81.169533 36.41141-81.169533 81.169533V781.048395c0 44.758123 36.41141 81.169533 81.169533 81.169533h731.399171c44.758123 0 81.169533-36.41141 81.169533-81.169533V267.124514c0-44.758123-36.41141-81.169533-81.169533-81.169533zM119.084007 392.178796h782.021085v124.604796H119.084007V392.178796z m782.022109 388.869599c0 13.950438-11.346697 25.310445-25.310445 25.310445H144.395476c-13.964772 0-25.311469-11.360008-25.311469-25.310445V572.641656h782.021085v208.406739zM119.084007 336.319708V267.124514c0-13.951461 11.346697-25.311469 25.311469-25.311469h731.399171c13.964772 0 25.310445 11.360008 25.310445 25.311469v69.196218H119.084007z" fill="#3E3A39" p-id="3093"></path><path d="M196.489737 721.576015h285.075272c15.437119 0 27.929544-12.505735 27.929544-27.929543 0-15.423809-12.491401-27.929544-27.929544-27.929544H196.489737c-15.437119 0-27.929544 12.505735-27.929544 27.929544 0.001024 15.423809 12.492425 27.929544 27.929544 27.929543z" fill="#3E3A39" p-id="3094"></path></svg>