<?xml version="1.0" encoding="utf-8"?>
<!-- Generator: Adobe Illustrator 22.0.0, SVG Export Plug-In . SVG Version: 6.00 Build 0)  -->
<svg version="1.1" id="图层_1" xmlns="http://www.w3.org/2000/svg" xmlns:xlink="http://www.w3.org/1999/xlink" x="0px" y="0px"
	 viewBox="0 0 40 40" style="enable-background:new 0 0 40 40;" xml:space="preserve">
<style type="text/css">
	.st0{fill:#5A9EF7;}
	.st1{fill:#FFFFFF;}
</style>
<path class="st0" d="M0,20c0,11.1,8.9,20,20,20s20-8.9,20-20S31.1,0,20,0S0,8.9,0,20z"/>
<path class="st1" d="M24.2,22.5c0,0,0.7-1,1.4-3c0.8-2,0.9-3.1,0.9-3.1l-5.7-0.1v-1.9l6.9-0.1v-1.4h-7V9.7h-3.4v3.1h-6.6v1.4
	l6.5-0.1v2.1h-5.1v1.1h10.7c-0.1,0.7-0.3,1.4-0.5,2c-0.4,1.1-0.9,2.1-0.9,2.1s-5-1.8-7.7-1.8c-2.6,0-5.9,1.1-6.2,4.1
	C7.2,27,9,28.7,11.6,29.3c2.5,0.6,4.9,0,6.9-1c2.1-1,4.1-3.3,4.1-3.3l10.6,5.2c0,0,0.6-1,1.1-1.9c0.4-0.6,0.6-1.4,0.9-2
	C35.3,26.3,24.2,22.5,24.2,22.5z M13.2,27.6c-3.8,0-4.5-1.9-4.5-3.1c0-1.3,0.8-2.8,4-3c3.1-0.2,7.5,2.3,7.5,2.3S17,27.6,13.2,27.6z"
	/>
</svg>
