<?xml version="1.0" encoding="utf-8"?>
<!-- Generator: Adobe Illustrator 22.0.0, SVG Export Plug-In . SVG Version: 6.00 Build 0)  -->
<svg version="1.1" id="图层_1" xmlns="http://www.w3.org/2000/svg" xmlns:xlink="http://www.w3.org/1999/xlink" x="0px" y="0px"
	 viewBox="0 0 30 30" style="enable-background:new 0 0 30 30;" xml:space="preserve">
<style type="text/css">
	.st0{fill:#4C546A;}
</style>
<path class="st0" d="M15,0C6.7,0,0,6.7,0,15c0,8.3,6.7,15,15,15c8.3,0,15-6.7,15-15C30,6.7,23.3,0,15,0z M15,28.2
	C7.7,28.2,1.8,22.3,1.8,15S7.7,1.8,15,1.8S28.2,7.7,28.2,15S22.3,28.2,15,28.2z"/>
<path class="st0" d="M21.7,14.4l-5.7,5.8l0-11.6c0-0.5-0.4-0.9-0.9-0.9h0c-0.5,0-0.9,0.4-0.9,0.9l0,11.7l-5.8-5.8
	c-0.4-0.4-0.9-0.3-1.3,0c-0.4,0.4-0.3,0.9,0,1.3l7.3,7.3c0.2,0.2,0.4,0.3,0.6,0.3h0c0.3,0,0.6-0.2,0.8-0.4l7.1-7.2
	c0.4-0.4,0.3-0.9,0-1.3C22.6,14,22,14,21.7,14.4z"/>
<path class="st0" d="M14.1,5.9c0,0.5,0.4,0.9,0.9,0.9c0.5,0,0.9-0.4,0.9-0.9c0-0.5-0.4-0.9-0.9-0.9S14.1,5.4,14.1,5.9
	C14.1,5.9,14.1,5.9,14.1,5.9z"/>
</svg>
