<?xml version="1.0" encoding="utf-8"?>
<!-- Generator: Adobe Illustrator 22.0.0, SVG Export Plug-In . SVG Version: 6.00 Build 0)  -->
<svg version="1.1" id="图层_1" xmlns="http://www.w3.org/2000/svg" xmlns:xlink="http://www.w3.org/1999/xlink" x="0px" y="0px"
	 viewBox="0 0 30 30" style="enable-background:new 0 0 30 30;" xml:space="preserve">
<style type="text/css">
	.st0{fill:#444444;}
</style>
<path class="st0" d="M12,4.7V8c0,1.1,0.9,2,2,2c0.3,0,7.8,0.2,11.7,5.2c1.4,1.8,2.2,4,2.3,6.6c-2.1-3-5.5-6.3-10.6-6.3
	c-1.3,0-2.6,0.2-3.9,0.6c-0.8,0.3-1.4,1-1.4,1.9v2.7l-9.5-8L12,4.7 M12.7,2c-0.5,0-1,0.3-1,0.3L1.1,11.2C-1.3,12.8,1,14,1,14
	l10.5,8.8c0.5,0.4,0.9,0.5,1.3,0.5c1,0,1.3-1.4,1.3-1.4v-4c1-0.3,2.2-0.5,3.4-0.5c8.1,0,11.3,10.2,11.3,10.2
	c0.1,0.2,0.2,0.3,0.4,0.3c0.2,0,0.3-0.3,0.3-0.3C33.6,8.3,14,8,14,8V4C13.9,2.4,13.2,2,12.7,2L12.7,2z"/>
</svg>
