<?xml version="1.0" standalone="no"?><!DOCTYPE svg PUBLIC "-//W3C//DTD SVG 1.1//EN" "http://www.w3.org/Graphics/SVG/1.1/DTD/svg11.dtd"><svg t="1583761286125" class="icon" viewBox="0 0 1024 1024" version="1.1" xmlns="http://www.w3.org/2000/svg" p-id="2394" xmlns:xlink="http://www.w3.org/1999/xlink" width="128" height="128"><defs><style type="text/css"></style></defs><path d="M128 224l0 576 768 0 0-576L128 224zM864 768l-704 0L160 460.8l704 0L864 768zM864 332.8l-704 0L160 256l704 0L864 332.8z" p-id="2395" fill="#8a8a8a"></path><path d="M224 569.6 512 569.6c6.4 0 12.8-6.4 12.8-12.8S524.8 537.6 512 537.6L224 537.6c-6.4 0-12.8 6.4-12.8 12.8S217.6 569.6 224 569.6z" p-id="2396" fill="#8a8a8a"></path><path d="M224 684.8l172.8 0c6.4 0 12.8-6.4 12.8-12.8l0-6.4c0-6.4-6.4-12.8-12.8-12.8L224 652.8c-6.4 0-12.8 6.4-12.8 12.8l0 6.4C211.2 678.4 217.6 684.8 224 684.8z" p-id="2397" fill="#8a8a8a"></path><path d="M659.2 537.6l160 0 0 147.2-160 0 0-147.2Z" p-id="2398" fill="#8a8a8a"></path></svg>