<?xml version="1.0" encoding="utf-8"?>
<!-- Generator: Adobe Illustrator 22.0.0, SVG Export Plug-In . SVG Version: 6.00 Build 0)  -->
<svg version="1.1" id="图层_1" xmlns="http://www.w3.org/2000/svg" xmlns:xlink="http://www.w3.org/1999/xlink" x="0px" y="0px"
	 viewBox="0 0 30 30" style="enable-background:new 0 0 30 30;" xml:space="preserve">
<style type="text/css">
	.st0{fill:#596DFF;}
</style>
<path class="st0" d="M15,0c8.3,0,15,6.7,15,15s-6.7,15-15,15S0,23.3,0,15S6.7,0,15,0z M7.5,11.2v1.9c0,1,0.8,1.9,1.9,1.9
	c1,0,1.9-0.8,1.9-1.9v-1.9c0-1-0.8-1.9-1.9-1.9c0,0,0,0,0,0C8.3,9.4,7.5,10.2,7.5,11.2z M18.8,11.2v1.9c0,1,0.8,1.9,1.9,1.9
	c1,0,1.9-0.8,1.9-1.9v-1.9c0-1-0.8-1.9-1.9-1.9c0,0,0,0,0,0C19.6,9.4,18.8,10.2,18.8,11.2z M20.9,22.4c0.9,0.3,1.6-0.4,1.6-1.1
	c0-0.4-0.2-0.8-0.6-1.1c-2.1-1-4.5-1.5-6.8-1.5c-2.4,0-4.7,0.5-6.8,1.5l-0.3,0.1l0,0.1c-0.2,0.2-0.4,0.5-0.4,0.9
	c0,0.7,0.5,1.2,1.2,1.2c0.1,0,0.2,0,0.3,0l0.1,0c1.8-0.8,3.8-1.2,5.9-1.2c2,0,4,0.4,5.8,1.2C20.8,22.4,20.9,22.4,20.9,22.4z"/>
</svg>
