<?xml version="1.0" encoding="utf-8"?>
<!-- Generator: Adobe Illustrator 22.0.0, SVG Export Plug-In . SVG Version: 6.00 Build 0)  -->
<svg version="1.1" id="图层_1" xmlns="http://www.w3.org/2000/svg" xmlns:xlink="http://www.w3.org/1999/xlink" x="0px" y="0px"
	 viewBox="0 0 30 30" style="enable-background:new 0 0 30 30;" xml:space="preserve">
<style type="text/css">
	.st0{fill:#596DFF;}
	.st1{fill:#FFFFFF;}
</style>
<path class="st0" d="M15,0C6.7,0,0,6.7,0,15s6.7,15,15,15s15-6.7,15-15S23.3,0,15,0z M19.8,16.3l-3.5,3.5c-0.7,0.7-1.8,0.7-2.6,0
	l-3.5-3.5c-0.7-0.7-0.7-1.8,0-2.6l3.5-3.5c0.7-0.7,1.8-0.7,2.6,0l3.5,3.5C20.5,14.4,20.5,15.6,19.8,16.3z"/>
<path class="st1" d="M23.1,17.1l-6,6c-1.2,1.2-3.1,1.2-4.3,0l-6-6c-1.2-1.2-1.2-3.1,0-4.3l6-6c1.2-1.2,3.1-1.2,4.3,0l6,6
	C24.3,14,24.3,16,23.1,17.1z"/>
<path class="st0" d="M16.4,9.7c-0.8-0.8-2-0.8-2.8,0l-3.9,3.9c-0.8,0.8-0.8,2,0,2.8l3.9,3.9c0.8,0.8,2,0.8,2.8,0l3.9-3.9
	c0.8-0.8,0.8-2,0-2.8L16.4,9.7z"/>
</svg>
