<?xml version="1.0" encoding="utf-8"?>
<!-- Generator: Adobe Illustrator 22.0.0, SVG Export Plug-In . SVG Version: 6.00 Build 0)  -->
<svg version="1.1" id="图层_1" xmlns="http://www.w3.org/2000/svg" xmlns:xlink="http://www.w3.org/1999/xlink" x="0px" y="0px"
	 viewBox="0 0 30 30" style="enable-background:new 0 0 30 30;" xml:space="preserve">
<style type="text/css">
	.st0{fill:#596DFF;}
</style>
<path class="st0" d="M4.4,20.6H5c0.7,0,1.3-0.6,1.3-1.3S5.7,18.1,5,18.1H4.4v-1.9H5c0.7,0,1.2-0.6,1.2-1.2c0-0.7-0.6-1.2-1.2-1.2
	l0,0H4.4v-1.9H5c0.7,0,1.3-0.6,1.3-1.3c0-0.7-0.6-1.3-1.3-1.3H4.4V6.9c0-1.4,1.1-2.5,2.5-2.5h16.3c1.4,0,2.5,1.1,2.5,2.5v16.3
	c0,1.4-1.1,2.5-2.5,2.5H6.9c-1.4,0-2.5-1.1-2.5-2.5L4.4,20.6z M10,11L10,11c0.7,4.2,3.2,7.7,7.4,10.5v0c1.2,0.8,2.7,0.4,3.5-0.7
	c0.8-1.2,0.4-2.7-0.7-3.5c-1-0.7-2.3-0.5-3.2,0.4c-1.5-1.4-2.7-3-3.4-4.7c1.3-0.6,1.8-2,1.3-3.3s-2-1.8-3.3-1.3
	C10.5,8.8,9.9,9.9,10,11L10,11z"/>
</svg>
