<?xml version="1.0" encoding="utf-8"?>
<!-- Generator: Adobe Illustrator 22.0.0, SVG Export Plug-In . SVG Version: 6.00 Build 0)  -->
<svg version="1.1" id="图层_1" xmlns="http://www.w3.org/2000/svg" xmlns:xlink="http://www.w3.org/1999/xlink" x="0px" y="0px"
	 viewBox="0 0 40 40" style="enable-background:new 0 0 40 40;" xml:space="preserve">
<style type="text/css">
	.st0{fill:#444444;}
</style>
<g>
	<path class="st0" d="M27.4,26.5l0.3-0.3l-0.1-0.1c0.1-0.2,0.1-0.4,0.1-0.6c0-0.8-0.6-1.4-1.4-1.4c-0.3,0-0.6,0.1-0.9,0.3
		c-0.1,0.1-0.1,0.1-0.2,0.2c-1.5,1.4-3.3,2.1-5.3,2.1c-2,0-3.8-0.7-5.3-2c0-0.1-0.1-0.1-0.2-0.2l-0.3-0.3l-0.1,0.1
		c-0.2-0.1-0.4-0.1-0.6-0.1c-0.8,0-1.4,0.6-1.4,1.4c0,0.2,0,0.4,0.1,0.6l-0.1,0.1l0.3,0.3c2,2,4.7,3.1,7.5,3.1
		C22.8,29.6,25.4,28.5,27.4,26.5z"/>
	<path class="st0" d="M37.2,15.3C35.5,7.2,28.3,1.4,20,1.4c-8.3,0-15.5,5.8-17.2,13.9C1.2,15.9,0,17.5,0,19.2V22
		c0,2.3,1.8,4.1,4.1,4.1s4.1-1.8,4.1-4.1v-2.8c0-1.7-1-3.1-2.5-3.8C7.3,9,13.3,4.3,20,4.3c6.7,0,12.7,4.7,14.2,11.2
		c-1.5,0.6-2.5,2.1-2.5,3.8V22c0,1.2,0.6,2.4,1.5,3.2c-1.8,3.8-5.1,6.6-9.2,7.8c-0.7-1-1.8-1.6-3-1.6h-2.1c-2,0-3.6,1.6-3.6,3.6
		s1.6,3.6,3.6,3.6h2.1c1.7,0,3.1-1.1,3.5-2.7c5-1.4,9.3-5,11.4-9.7c2.2-0.1,4-1.9,4-4.1v-2.8C40,17.5,38.8,15.9,37.2,15.3z
		 M35.9,23.3c-0.7,0-1.2-0.6-1.2-1.2v-2.8c0-0.7,0.6-1.2,1.2-1.2c0.7,0,1.2,0.6,1.2,1.2V22C37.1,22.7,36.6,23.3,35.9,23.3z
		 M4.1,23.3c-0.7,0-1.2-0.6-1.2-1.2v-2.8c0-0.7,0.6-1.2,1.2-1.2s1.2,0.6,1.2,1.2V22C5.4,22.7,4.8,23.3,4.1,23.3z M18.9,34.3h2.1
		c0.4,0,0.7,0.3,0.7,0.7c0,0.4-0.3,0.7-0.7,0.7h-2.1c-0.4,0-0.7-0.3-0.7-0.7C18.2,34.6,18.5,34.3,18.9,34.3z"/>
</g>
</svg>
