<?xml version="1.0" encoding="utf-8"?>
<!-- Generator: Adobe Illustrator 22.0.0, SVG Export Plug-In . SVG Version: 6.00 Build 0)  -->
<svg version="1.1" id="图层_1" xmlns="http://www.w3.org/2000/svg" xmlns:xlink="http://www.w3.org/1999/xlink" x="0px" y="0px"
	 viewBox="0 0 30 30" style="enable-background:new 0 0 30 30;" xml:space="preserve">
<style type="text/css">
	.st0{fill:#4C546A;}
</style>
<path class="st0" d="M8.1,26H3.9C2.2,26,2,24.3,2,24.3V3.4C2,1.9,3.5,2,3.5,2h16.6c2.2,0,2,1.7,2,1.7v2.4c0,0.1,0.2,1,1,1
	c0.9,0,1-0.9,1-0.9s0-0.4,0-3.3C24,0.1,20.9,0,20.9,0S7.5,0,3.6,0S0,3.6,0,3.6s0,18.6,0,21.2C0,27.5,2.9,28,2.9,28h5.3
	c0,0,0.8,0,0.8-0.9C9,26.2,8.1,26,8.1,26z M20.3,18.8c0,0-0.2-0.2-0.2-0.8c0-0.6,0-3.2,0-3.2s-0.3-0.8-1-0.8c-0.7,0-1,0.6-1,0.8v4
	c0,0,0,0.5,0.4,0.9s3.9,4,3.9,4s0.7,0.3,1.2-0.2c0.6-0.6-0.1-1.3-0.1-1.3L20.3,18.8z M20,10.1c-5.5,0-10,4.5-10,10s4.5,10,10,10
	s10-4.5,10-10C30,14.5,25.5,10.1,20,10.1z M20,28.1c-4.4,0-8-3.6-8-8s3.6-8,8-8s8,3.6,8,8C28.1,24.5,24.5,28.1,20,28.1z M8.4,12H5.7
	c-0.4,0-0.8,0.4-0.8,0.8v0.4c0,0.4,0.4,0.8,0.8,0.8h2.7c0.4,0,0.8-0.4,0.8-0.8v-0.4C9.2,12.4,8.8,12,8.4,12z M5.7,6
	C5.3,6,4.9,6.4,4.9,6.8v0.4C4.9,7.7,5.3,8,5.7,8h12.7c0.4,0,0.8-0.4,0.8-0.8V6.8c0-0.4-0.4-0.8-0.8-0.8H5.7z"/>
</svg>
