<?xml version="1.0" encoding="utf-8"?>
<!-- Generator: Adobe Illustrator 22.0.0, SVG Export Plug-In . SVG Version: 6.00 Build 0)  -->
<svg version="1.1" id="图层_1" xmlns="http://www.w3.org/2000/svg" xmlns:xlink="http://www.w3.org/1999/xlink" x="0px" y="0px"
	 viewBox="0 0 30 30" style="enable-background:new 0 0 30 30;" xml:space="preserve">
<style type="text/css">
	.st0{fill:#444444;}
</style>
<path class="st0" d="M22,30h-4.4c-0.7,0-1.3-0.6-1.3-1.3v-8.8c0-0.1,0-0.1,0-0.2h-2.6c0,0.1,0,0.1,0,0.2v8.8c0,0.7-0.6,1.3-1.3,1.3
	H8c-2.5,0-4.6-2.2-4.6-5v-7H3.2c-1.3,0-2.4-0.7-3-1.8c-0.4-1-0.4-2.5,1-3.9L11.6,1.4C12.5,0.5,13.7,0,15,0s2.5,0.5,3.4,1.4
	l10.4,10.8c1.4,1.4,1.4,3,1,3.9c-0.5,1.1-1.6,1.8-3,1.8h-0.2v7C26.6,27.8,24.5,30,22,30L22,30z M18.9,27.4H22c1.2,0,2-1.2,2-2.4
	v-8.3c0-0.7,0.6-1.3,1.3-1.3h1.5c0.4,0,0.5-0.2,0.6-0.3c0-0.1,0-0.5-0.5-1.1L16.5,3.2c-0.8-0.8-2.2-0.8-3,0L3.1,14.1
	c-0.5,0.5-0.6,0.9-0.5,1.1c0.1,0.1,0.2,0.3,0.6,0.3h1.5C5.4,15.4,6,16,6,16.7V25c0,1.1,0.8,2.4,2,2.4h3.1v-7.8c0-0.6,0-1.3,0.5-1.9
	c0.6-0.6,1.3-0.6,1.6-0.6h3.5c0.3,0,1,0,1.6,0.6s0.5,1.3,0.5,1.9v0.3L18.9,27.4L18.9,27.4z"/>
</svg>
