<?xml version="1.0" encoding="utf-8"?>
<!-- Generator: Adobe Illustrator 22.0.0, SVG Export Plug-In . SVG Version: 6.00 Build 0)  -->
<svg version="1.1" id="图层_1" xmlns="http://www.w3.org/2000/svg" xmlns:xlink="http://www.w3.org/1999/xlink" x="0px" y="0px"
	 viewBox="0 0 30 30" style="enable-background:new 0 0 30 30;" xml:space="preserve">
<style type="text/css">
	.st0{fill:#444444;}
</style>
<g>
	<path class="st0" d="M18.5,8.3h6.3v1.4h-6.3V8.3L18.5,8.3z"/>
	<path class="st0" d="M18.5,12.9h6.3v1.4h-6.3V12.9L18.5,12.9z"/>
	<path class="st0" d="M20,24L20,24H3c-0.6,0-1.1-0.5-1.1-1.1v-16c0-0.6,0.5-1.1,1.1-1.1h22.2c0.6,0,1.1,0.5,1.1,1.1v11
		c0.5,0,1.4,0.1,1.8,0.4V6.4c0-1.4-1-2.4-2.4-2.4H2.4C1,3.9,0,5,0,6.3v17.3c0,1.4,1,2.4,2.4,2.4h18.1C20.1,25.3,20,24.6,20,24L20,24
		z"/>
	<path class="st0" d="M24.8,17.8v-0.3h-6.3v1.4h3.8C23,18.3,23.8,18,24.8,17.8L24.8,17.8z"/>
	<path class="st0" d="M9.4,16.1c2.1,0,3.9-1.8,3.9-3.9s-1.8-3.9-3.9-3.9s-3.9,1.8-3.9,3.9S7.3,16.1,9.4,16.1L9.4,16.1z M9.4,9.8
		c1.4,0,2.5,1.1,2.5,2.5s-1.1,2.5-2.5,2.5s-2.5-1.1-2.5-2.5C6.9,10.8,8,9.8,9.4,9.8L9.4,9.8z"/>
	<path class="st0" d="M9.4,16.3c2.5,0,4.9,2.3,4.9,4.9h1.4c0-3.5-2.9-6.3-6.3-6.3s-6.3,2.9-6.3,6.3h1.4C4.5,18.5,6.8,16.3,9.4,16.3
		L9.4,16.3z"/>
	<path class="st0" d="M14.3,21c0,0.1,0.1,0.4,0.1,0.5c0.1,0.1,0.4,0.1,0.5,0.1s0.4-0.1,0.5-0.1c0.1-0.1,0.1-0.3,0.1-0.5
		c0-0.3-0.1-0.4-0.1-0.5c-0.1-0.1-0.4-0.1-0.5-0.1c-0.1,0-0.4,0.1-0.5,0.1C14.3,20.8,14.3,20.9,14.3,21L14.3,21z"/>
	<path class="st0" d="M3.1,21c0,0.1,0.1,0.4,0.1,0.5c0.1,0.1,0.3,0.1,0.5,0.1c0.1,0,0.4-0.1,0.5-0.1c0.1-0.1,0.1-0.3,0.1-0.5
		c0-0.3-0.1-0.4-0.1-0.5c-0.1-0.1-0.3-0.1-0.5-0.1c-0.1,0-0.4,0.1-0.5,0.1C3.1,20.6,3.1,20.8,3.1,21L3.1,21z"/>
	<path class="st0" d="M30,20.6c0-0.4-0.4-0.8-0.8-0.8l0,0c-0.1,0-0.4,0.1-0.5,0.1l-4.4,4.4l-1.8-1.8c-0.1-0.1-0.3-0.1-0.5-0.1l0,0
		c-0.4,0-0.8,0.4-0.8,0.8c0,0.1,0.1,0.4,0.1,0.5l1.8,1.8l0,0c0.1,0.1,0.5,0.5,0.8,0.5c0,0,0,0,0.1,0h0.1l0,0c0.1,0,0.1,0,0.1,0l0,0
		c0.3,0,0.5-0.3,0.5-0.3l4.6-4.6l0,0l0,0l0,0C29.9,21,30,20.8,30,20.6z"/>
</g>
</svg>
