<?xml version="1.0" encoding="utf-8"?>
<!-- Generator: Adobe Illustrator 22.0.0, SVG Export Plug-In . SVG Version: 6.00 Build 0)  -->
<svg version="1.1" id="图层_1" xmlns="http://www.w3.org/2000/svg" xmlns:xlink="http://www.w3.org/1999/xlink" x="0px" y="0px"
	 viewBox="0 0 40 40" style="enable-background:new 0 0 40 40;" xml:space="preserve">
<style type="text/css">
	.st0{fill:#FFFFFF;}
	.st1{fill:#39B2FF;}
</style>
<path class="st0" d="M20,0C9,0,0,9,0,20s9,20,20,20s20-9,20-20S31,0,20,0z"/>
<path class="st1" d="M8,20.7c0-6.8,5.5-12.3,12.3-12.3c1.6,0,3.2,0.3,4.6,0.9l1-1.9C26.1,7.2,26.3,7,26.6,7c0.3,0,0.6,0.1,0.7,0.4
	l4.3,6.8c0.2,0.2,0.2,0.6,0,0.8c-0.1,0.3-0.4,0.4-0.7,0.4l-8.1,0.3c0,0,0,0,0,0c0,0,0,0,0,0c-0.4,0-0.8-0.4-0.8-0.8
	c0-0.2,0.1-0.4,0.2-0.5l1.1-2.2c-1-0.4-2-0.6-3.1-0.6c-5,0-9.1,4.1-9.1,9.1s4.1,9.1,9.1,9.1c3.9,0,7.3-2.5,8.5-6l0,0
	c0.2-0.6,0.8-1.1,1.5-1.1c0.9,0,1.6,0.7,1.6,1.6c0,0.3-0.1,0.5-0.2,0.7l0,0c-1.7,4.7-6.2,8-11.5,8C13.5,33,8,27.5,8,20.7z"/>
</svg>
