<?xml version="1.0" encoding="utf-8"?>
<!-- Generator: Adobe Illustrator 22.0.0, SVG Export Plug-In . SVG Version: 6.00 Build 0)  -->
<svg version="1.1" id="图层_1" xmlns="http://www.w3.org/2000/svg" xmlns:xlink="http://www.w3.org/1999/xlink" x="0px" y="0px"
	 viewBox="0 0 30 30" style="enable-background:new 0 0 30 30;" xml:space="preserve">
<style type="text/css">
	.st0{fill:#4C546A;}
</style>
<path class="st0" d="M15,30c-2,0-3.9-0.4-5.8-1.2c-1.8-0.7-3.4-1.8-4.7-3.2c-1.4-1.4-2.4-2.9-3.2-4.7c-0.8-1.8-1.2-3.8-1.2-5.8
	c0-2.4,0.6-4.8,1.7-6.9c1.1-2,2.6-3.8,4.5-5.2C6.9,2.7,7.6,2.9,8,3.4C8.4,3.9,8.3,4.6,7.7,5C6.1,6.1,4.8,7.7,3.9,9.4
	c-0.9,1.8-1.4,3.8-1.4,5.8c0,3.3,1.3,6.5,3.7,8.8c2.4,2.4,5.5,3.7,8.8,3.7c3.3,0,6.5-1.3,8.8-3.7c2.4-2.4,3.7-5.5,3.7-8.8
	c0-2-0.5-4-1.4-5.8c-0.9-1.7-2.2-3.2-3.8-4.4c-0.5-0.4-0.6-1.1-0.3-1.6c0.4-0.5,1.1-0.6,1.6-0.3c1.9,1.3,3.4,3.1,4.5,5.2
	c1.1,2.1,1.7,4.5,1.7,6.9c0,2-0.4,3.9-1.2,5.8c-0.7,1.8-1.8,3.4-3.2,4.7c-1.4,1.4-2.9,2.4-4.7,3.2C18.9,29.6,17,30,15,30L15,30z
	 M15.3,16.1c-0.6,0-1.2-0.5-1.2-1.2V1.2c0-0.6,0.5-1.2,1.2-1.2s1.2,0.5,1.2,1.2v13.7C16.5,15.5,16,16.1,15.3,16.1L15.3,16.1z"/>
</svg>
