<?xml version="1.0" encoding="utf-8"?>
<!-- Generator: Adobe Illustrator 22.0.0, SVG Export Plug-In . SVG Version: 6.00 Build 0)  -->
<svg version="1.1" id="图层_1" xmlns="http://www.w3.org/2000/svg" xmlns:xlink="http://www.w3.org/1999/xlink" x="0px" y="0px"
	 viewBox="0 0 30 30" style="enable-background:new 0 0 30 30;" xml:space="preserve">
<style type="text/css">
	.st0{fill:#444444;}
</style>
<path class="st0" d="M30,27.8c0,0.6-0.5,1.2-1.2,1.2c-0.6,0-1.2-0.5-1.2-1.2v-0.6c0-2.9-5.9-7-12.6-7c-5.4,0-12.7,3.4-12.7,6.9v0.7
	c0,0.6-0.5,1.2-1.2,1.2S0,28.5,0,27.8v-1.4c0-1.7,2.6-6.2,9.6-7.8c-2.5-1.7-4.2-4.6-4.2-7.9C5.4,5.3,9.7,1,15,1s9.6,4.3,9.6,9.6
	c0,3.2-1.6,6.1-4.1,7.8c7.1,1.6,9.5,6.3,9.5,7.9C30,26.4,30,27.8,30,27.8z M22.3,10.6c0-4-3.3-7.3-7.3-7.3s-7.3,3.3-7.3,7.3
	s3.3,7.3,7.3,7.3S22.3,14.6,22.3,10.6z"/>
</svg>
