<?xml version="1.0" encoding="utf-8"?>
<!-- Generator: Adobe Illustrator 22.0.0, SVG Export Plug-In . SVG Version: 6.00 Build 0)  -->
<svg version="1.1" id="图层_1" xmlns="http://www.w3.org/2000/svg" xmlns:xlink="http://www.w3.org/1999/xlink" x="0px" y="0px"
	 viewBox="0 0 30 30" style="enable-background:new 0 0 30 30;" xml:space="preserve">
<style type="text/css">
	.st0{fill:#444444;}
</style>
<g>
	<path class="st0" d="M10,17.9"/>
	<path class="st0" d="M15,30H5c-1.5,0-2.9-1.3-2.9-2.8c0-3.4,3.5-8.3,7-10c0.4-0.3,1,0,1.1,0.4c0.3,0.4,0,1-0.4,1.1
		c-3.3,1.5-6,6-6,8.4c0,0.5,0.5,1,1.1,1h10c0.5,0,0.9,0.4,0.9,0.9C15.9,29.6,15.5,30,15,30z"/>
	<path class="st0" d="M20,17.9"/>
	<path class="st0" d="M25,30H15c-0.5,0-0.9-0.4-0.9-0.9s0.4-0.9,0.9-0.9h10c0.5,0,1.1-0.5,1.1-1c0-2.5-2.9-6.9-6-8.4
		c-0.4-0.3-0.6-0.8-0.4-1.1c0.3-0.4,0.8-0.6,1.1-0.4c3.5,1.8,7,6.6,7,10C27.9,28.8,26.5,30,25,30z"/>
	<path class="st0" d="M20.1,17.9"/>
	<path class="st0" d="M15.1,17.1c-4.8,0-8.6-3.9-8.6-8.6C6.6,3.9,10.4,0,15.1,0s8.6,3.9,8.6,8.6C23.8,13.3,19.9,17.1,15.1,17.1z
		 M15.1,1.8c-3.8,0-6.9,3-6.9,6.9c0,3.8,3,6.9,6.9,6.9c3.7,0,6.9-3,6.9-6.9S18.9,1.8,15.1,1.8z"/>
	<path class="st0" d="M20.1,17.9"/>
	<path class="st0" d="M10.3,9C10,9,9.8,8.8,9.8,8.6c0-3,2.4-5.4,5.4-5.4c0.2,0,0.4,0.3,0.4,0.4c0,0.3-0.3,0.4-0.4,0.4
		c-2.5,0-4.5,2-4.5,4.5C10.6,8.8,10.5,9,10.3,9z"/>
	<path class="st0" d="M15.4,3.6"/>
	<path class="st0" d="M11.1,10.4c0,0.3-0.3,0.5-0.5,0.5s-0.5-0.3-0.5-0.5s0.2-0.5,0.5-0.5S11.1,10.1,11.1,10.4z"/>
</g>
</svg>
