<?xml version="1.0" encoding="utf-8"?>
<!-- Generator: Adobe Illustrator 22.0.0, SVG Export Plug-In . SVG Version: 6.00 Build 0)  -->
<svg version="1.1" id="图层_1" xmlns="http://www.w3.org/2000/svg" xmlns:xlink="http://www.w3.org/1999/xlink" x="0px" y="0px"
	 viewBox="0 0 30 30" style="enable-background:new 0 0 30 30;" xml:space="preserve">
<style type="text/css">
	.st0{fill:#4C546A;}
</style>
<path class="st0" d="M23.6,30H4.2C2.5,30,1,28.6,1,26.8V5.3c0-1.8,1.4-3.2,3.2-3.2h15c0.6,0,1.1,0.5,1.1,1.1s-0.5,1.1-1.1,1.1h-15
	c-0.6,0-1.1,0.5-1.1,1.1v21.5c0,0.6,0.5,1.1,1.1,1.1h19.3c0.6,0,1.1-0.5,1.1-1.1V9.6c0-0.6,0.5-1.1,1.1-1.1s1.1,0.5,1.1,1.1v17.2
	C26.8,28.5,25.3,30,23.6,30z"/>
<path class="st0" d="M17.2,12.8c-0.3,0-0.5-0.1-0.8-0.3c-0.4-0.4-0.4-1.1,0-1.5L27.1,0.3c0.4-0.4,1.1-0.4,1.5,0
	c0.4,0.4,0.4,1.1,0,1.5L18,12.5C17.8,12.7,17.5,12.8,17.2,12.8z M12.8,12.8H6.4c-0.6,0-1.1-0.5-1.1-1.1c0-0.6,0.5-1.1,1.1-1.1h6.4
	c0.6,0,1.1,0.5,1.1,1.1C13.9,12.3,13.4,12.8,12.8,12.8z M19.3,19.2H6.4c-0.6,0-1.1-0.5-1.1-1.1c0-0.6,0.5-1.1,1.1-1.1h12.9
	c0.6,0,1.1,0.5,1.1,1.1C20.3,18.8,19.8,19.2,19.3,19.2z"/>
</svg>
