<?xml version="1.0" encoding="utf-8"?>
<!-- Generator: Adobe Illustrator 22.0.0, SVG Export Plug-In . SVG Version: 6.00 Build 0)  -->
<svg version="1.1" id="图层_1" xmlns="http://www.w3.org/2000/svg" xmlns:xlink="http://www.w3.org/1999/xlink" x="0px" y="0px"
	 viewBox="0 0 30 30" style="enable-background:new 0 0 30 30;" xml:space="preserve">
<style type="text/css">
	.st0{fill:#444444;}
</style>
<path class="st0" d="M21.6,30H8.4c-2.7,0-5-2.2-5-5V5c0-2.7,2.2-5,5-5h13.2c2.7,0,5,2.2,5,5V25C26.5,27.8,24.3,30,21.6,30z M8.4,1.9
	C6.7,1.9,5.4,3.3,5.4,5V25c0,1.7,1.4,3.1,3.1,3.1h13.2c1.7,0,3.1-1.4,3.1-3.1V5c0-1.7-1.4-3.1-3.1-3.1H8.4z"/>
<path class="st0" d="M12.4,23.7c0,1.5,1.2,2.6,2.6,2.6c1.5,0,2.6-1.2,2.6-2.6c0-1.5-1.2-2.6-2.6-2.6S12.4,22.3,12.4,23.7
	C12.4,23.7,12.4,23.7,12.4,23.7z"/>
<path class="st0" d="M9.1,5h11.9"/>
<path class="st0" d="M20.9,5.7H9.1C8.7,5.7,8.4,5.4,8.4,5s0.3-0.6,0.6-0.6h11.9c0.4,0,0.6,0.3,0.6,0.6C21.6,5.4,21.3,5.7,20.9,5.7z"
	/>
</svg>
