<?xml version="1.0" encoding="utf-8"?>
<!-- Generator: Adobe Illustrator 22.0.0, SVG Export Plug-In . SVG Version: 6.00 Build 0)  -->
<svg version="1.1" id="图层_1" xmlns="http://www.w3.org/2000/svg" xmlns:xlink="http://www.w3.org/1999/xlink" x="0px" y="0px"
	 viewBox="0 0 30 30" style="enable-background:new 0 0 30 30;" xml:space="preserve">
<style type="text/css">
	.st0{fill:#444444;}
</style>
<path class="st0" d="M15,30c-4.5,0-12.9-6.7-12.9-13.1V4.8c0-0.3,0.2-0.5,0.6-0.5l0.7,0c0,0,2.9-0.1,5.8-1.2c3-1.2,5-2.6,5-2.6
	l0.4-0.3C14.8,0,14.9,0,15,0c0.1,0,0.2,0,0.3,0.1l0.4,0.3c0,0,2,1.4,5,2.6c3,1.2,5.8,1.2,5.9,1.2l0.7,0c0.3,0,0.6,0.2,0.6,0.5
	l0,12.1C27.9,23.3,19.5,30,15,30L15,30z M25.9,6.2c-1.1-0.1-3.4-0.4-5.9-1.3c-2.5-1-4.3-2.1-5-2.6c-0.7,0.5-2.6,1.6-5,2.6
	c-2.4,1-4.7,1.2-5.9,1.3v10.7c0,5,7.3,11.1,10.9,11.1c1.4,0,4.1-1.1,6.8-3.6c2.6-2.4,4.1-5.2,4.1-7.5L25.9,6.2z M14,19
	c-0.2,0.2-0.4,0.3-0.7,0.3c-0.3,0-0.5-0.1-0.7-0.3l-3-3c-0.4-0.4-0.4-1,0-1.4c0.4-0.4,1-0.4,1.4,0c0,0,0,0,0,0l2.3,2.3L19,11
	c0.4-0.4,1-0.4,1.4,0c0,0,0,0,0,0c0.4,0.4,0.4,1,0,1.4L14,19z"/>
</svg>
