<?xml version="1.0" encoding="utf-8"?>
<!-- Generator: Adobe Illustrator 22.0.0, SVG Export Plug-In . SVG Version: 6.00 Build 0)  -->
<svg version="1.1" id="图层_1" xmlns="http://www.w3.org/2000/svg" xmlns:xlink="http://www.w3.org/1999/xlink" x="0px" y="0px"
	 viewBox="0 0 30 30" style="enable-background:new 0 0 30 30;" xml:space="preserve">
<style type="text/css">
	.st0{fill:#4C546A;}
</style>
<path class="st0" d="M11,29.2H4.1c-2.3,0-4.1-1.8-4.1-4.1V4.3C0,2,1.8,0.2,4.1,0.2h19.9C26.2,0.2,28,2,28,4.3v9.6
	c0,0.5-0.4,0.9-0.9,0.9c-0.5,0-0.9-0.4-0.9-0.9V4.3C26.2,3,25.2,2,24,2H4.1C2.8,2,1.8,3,1.8,4.3v20.9c0,1.2,1,2.3,2.3,2.3H11
	c0.5,0,0.9,0.4,0.9,0.9C11.9,28.8,11.5,29.2,11,29.2C11,29.2,11,29.2,11,29.2L11,29.2z"/>
<path class="st0" d="M6.8,9.6c-0.5,0-0.9-0.4-0.9-0.9c0-0.5,0.4-0.9,0.9-0.9l0,0l14.6-0.1c0.5,0,0.9,0.4,0.9,0.9
	c0,0.5-0.4,0.9-0.9,0.9L6.8,9.6L6.8,9.6z M6.9,14.9C6.4,14.9,6,14.5,6,14c0-0.5,0.4-0.9,0.9-0.9l8.1,0c0.5,0,0.9,0.4,0.9,0.9
	c0,0.5-0.4,0.9-0.9,0.9c0,0,0,0,0,0L6.9,14.9z M6.9,20.5c-0.5,0-0.9-0.4-0.9-0.9c0-0.5,0.4-0.9,0.9-0.9l3.3,0c0.5,0,0.9,0.4,0.9,0.9
	c0,0.5-0.4,0.9-0.9,0.9L6.9,20.5z M25.9,29.8h-8.3c-2.2,0-4.1-1.8-4.1-4.1v-5.2c0-2.2,1.8-4.1,4.1-4.1h8.3c2.2,0,4.1,1.8,4.1,4.1
	v5.2C30,28,28.2,29.8,25.9,29.8z M17.7,18.3c-1.2,0-2.2,1-2.2,2.2v5.2c0,1.2,1,2.2,2.2,2.2h8.3c1.2,0,2.2-1,2.2-2.2v-5.2
	c0-1.2-1-2.2-2.2-2.2H17.7z"/>
<path class="st0" d="M20.5,23.1c0,1,0.8,1.8,1.8,1.8c1,0,1.8-0.8,1.8-1.8l0,0c0-1-0.8-1.8-1.8-1.8C21.3,21.3,20.5,22.1,20.5,23.1z"
	/>
<path class="st0" d="M18.8,18.1c-0.4,0-0.7-0.2-0.8-0.6c-0.9-2.1,0.1-4.5,2.2-5.4s4.5,0.1,5.4,2.2c0.4,0.9,0.4,2,0.1,3
	c-0.1,0.5-0.6,0.8-1.1,0.6c-0.5-0.1-0.8-0.6-0.6-1.1c0,0,0-0.1,0-0.1c0.4-1.2-0.2-2.5-1.4-3c-1.2-0.4-2.5,0.2-3,1.4
	c-0.2,0.5-0.2,1.1,0.1,1.7c0.2,0.5,0,1-0.5,1.2C19.1,18.1,19,18.1,18.8,18.1L18.8,18.1z"/>
</svg>
