<?xml version="1.0" encoding="utf-8"?>
<!-- Generator: Adobe Illustrator 22.0.0, SVG Export Plug-In . SVG Version: 6.00 Build 0)  -->
<svg version="1.1" id="图层_1" xmlns="http://www.w3.org/2000/svg" xmlns:xlink="http://www.w3.org/1999/xlink" x="0px" y="0px"
	 viewBox="0 0 30 30" style="enable-background:new 0 0 30 30;" xml:space="preserve">
<style type="text/css">
	.st0{fill:#596DFF;}
	.st1{fill:#FFFFFF;}
</style>
<path class="st0" d="M30,11.3V5.4c0-0.6-0.5-1.1-1.1-1.1H1.1C0.5,4.3,0,4.8,0,5.4v6c1.3,0.8,2.1,2.1,2.1,3.7c0,1.6-0.9,3-2.1,3.7
	v5.9c0,0.6,0.5,1.1,1.1,1.1h27.9c0.6,0,1.1-0.5,1.1-1.1v-5.9c-1.3-0.8-2.1-2.1-2.1-3.7S28.7,12,30,11.3z"/>
<path class="st1" d="M19.2,13.6L19.2,13.6c0,0.6-0.5,1-1,1H16v2.1h2.1c0.6,0,1,0.5,1,1v0c0,0.6-0.5,1-1,1H16V21c0,0.6-0.5,1-1,1h0
	c-0.6,0-1-0.5-1-1v-2.1h-2.1c-0.6,0-1-0.5-1-1v0c0-0.6,0.5-1,1-1H14v-2.1h-2.1c-0.6,0-1-0.5-1-1v0c0-0.6,0.5-1,1-1h2.1l-2.8-2.8
	c-0.4-0.4-0.4-1.1,0-1.5l0,0c0.4-0.4,1.1-0.4,1.5,0l2.4,2.4l2.4-2.4c0.4-0.4,1.1-0.4,1.5,0l0,0c0.4,0.4,0.4,1.1,0,1.5l-2.7,2.7h2
	C18.7,12.6,19.2,13,19.2,13.6z"/>
</svg>
