<?xml version="1.0" encoding="utf-8"?>
<!-- Generator: Adobe Illustrator 22.0.0, SVG Export Plug-In . SVG Version: 6.00 Build 0)  -->
<svg version="1.1" id="图层_1" xmlns="http://www.w3.org/2000/svg" xmlns:xlink="http://www.w3.org/1999/xlink" x="0px" y="0px"
	 viewBox="0 0 30 30" style="enable-background:new 0 0 30 30;" xml:space="preserve">
<style type="text/css">
	.st0{fill:#4C546A;}
</style>
<path class="st0" d="M3.3,3.3h23.3c1.8,0,3.3,1.5,3.3,3.3c0,0,0,0,0,0v16.7c0,1.8-1.5,3.3-3.3,3.3l0,0H3.3c-1.8,0-3.3-1.5-3.3-3.3
	V6.7C0,4.8,1.5,3.3,3.3,3.3C3.3,3.3,3.3,3.3,3.3,3.3z M3.3,5C2.4,5,1.7,5.7,1.7,6.7l0,0v16.7c0,0.9,0.7,1.7,1.7,1.7c0,0,0,0,0,0
	h23.3c0.9,0,1.7-0.7,1.7-1.7V6.7c0-0.9-0.7-1.7-1.7-1.7H3.3z M15,14l9.6-5.6c0.4-0.2,0.9-0.1,1.1,0.3s0.1,0.9-0.3,1.1l-10,5.8
	c-0.3,0.2-0.6,0.2-0.8,0l-10-5.8C4.2,9.7,4.1,9.1,4.3,8.7C4.5,8.3,5,8.2,5.4,8.4C5.4,8.4,15,14,15,14z"/>
</svg>
