<?xml version="1.0" encoding="utf-8"?>
<!-- Generator: Adobe Illustrator 22.0.0, SVG Export Plug-In . SVG Version: 6.00 Build 0)  -->
<svg version="1.1" id="图层_1" xmlns="http://www.w3.org/2000/svg" xmlns:xlink="http://www.w3.org/1999/xlink" x="0px" y="0px"
	 viewBox="0 0 40 40" style="enable-background:new 0 0 40 40;" xml:space="preserve">
<style type="text/css">
	.st0{fill:#00C800;}
</style>
<path class="st0" d="M13.6,13.8c-0.6,0-1.2,0.5-1.2,1.2c0,0.6,0.5,1.2,1.2,1.2s1.2-0.5,1.2-1.2S14.2,13.8,13.6,13.8z M22.6,20
	c-0.5,0-1,0.4-1,1c0,0.5,0.4,1,1,1c0.5,0,1-0.4,1-1C23.5,20.4,23.1,20,22.6,20z M19.6,16.1c0.6,0,1.2-0.5,1.2-1.2s-0.5-1.2-1.2-1.2
	c-0.6,0-1.2,0.5-1.2,1.2S18.9,16.1,19.6,16.1z M27.3,20c-0.5,0-1,0.4-1,1c0,0.5,0.4,1,1,1c0.5,0,1-0.4,1-1
	C28.3,20.4,27.8,20,27.3,20z"/>
<path class="st0" d="M20,0C8.9,0,0,9,0,20s9,20,20,20s20-9,20-20S31,0,20,0z M16.5,24.8c-1.1,0-1.9-0.2-3-0.4l-3,1.5l0.9-2.6
	c-2.1-1.5-3.4-3.4-3.4-5.8c0-4.1,3.9-7.3,8.6-7.3c4.2,0,7.9,2.6,8.7,6c-0.3,0-0.5-0.1-0.8-0.1c-4.1,0-7.3,3-7.3,6.8
	c0,0.6,0.1,1.2,0.3,1.8C17,24.8,16.7,24.8,16.5,24.8z M29.1,27.8l0.6,2.1l-2.4-1.3c-0.9,0.2-1.7,0.4-2.6,0.4c-4.1,0-7.3-2.8-7.3-6.2
	c0-3.4,3.2-6.2,7.3-6.2c3.9,0,7.3,2.8,7.3,6.2C32.1,24.8,30.8,26.5,29.1,27.8z"/>
</svg>
